<svg width="62" height="62" viewBox="0 0 62 62" fill="none" xmlns="http://www.w3.org/2000/svg">
<path d="M61 31C61 38.9565 57.8393 46.5871 52.2132 52.2132C46.5871 57.8393 38.9565 61 31 61M61 31L31 61M61 31C61 23.0435 57.8393 15.4129 52.2132 9.7868C46.5871 4.1607 38.9565 1 31 1M61 31L31 1M61 31H1M31 61C23.0435 61 15.4129 57.8393 9.7868 52.2132C4.1607 46.5871 1 38.9565 1 31M31 61L1 31M31 61C36.5233 61 41 47.5667 41 31C41 14.4333 36.5233 1 31 1M31 61V1M31 61C25.4767 61 21 47.5667 21 31C21 14.4333 25.4767 1 31 1M31 1C23.0435 1 15.4129 4.1607 9.7868 9.7868C4.1607 15.4129 1 23.0435 1 31" stroke="#FF715B" stroke-width="2" stroke-linecap="round" stroke-linejoin="round"/>
</svg>
